<svg width="24" height="19" viewBox="0 0 24 19" fill="none" xmlns="http://www.w3.org/2000/svg">
<path d="M20.3175 1.76932C18.7875 1.07932 17.1475 0.569317 15.4325 0.279317C15.4172 0.276385 15.4014 0.278275 15.3872 0.284725C15.3731 0.291175 15.3613 0.301866 15.3535 0.315317C15.1435 0.684317 14.9095 1.16532 14.7455 1.54532C12.9266 1.27355 11.0774 1.27355 9.25848 1.54532C9.07582 1.12418 8.86983 0.713542 8.64148 0.315317C8.63374 0.3017 8.62203 0.290767 8.60792 0.283977C8.5938 0.277188 8.57795 0.274864 8.56248 0.277317C6.84848 0.567317 5.20848 1.07732 3.67748 1.76832C3.66431 1.77384 3.65314 1.78326 3.64548 1.79532C0.533481 6.37032 -0.319519 10.8323 0.0994806 15.2383C0.100647 15.2491 0.103996 15.2595 0.109326 15.269C0.114655 15.2785 0.121853 15.2867 0.130481 15.2933C1.94687 16.6157 3.97282 17.6231 6.12348 18.2733C6.13847 18.2779 6.15451 18.2779 6.16949 18.2733C6.18448 18.2686 6.19772 18.2596 6.20748 18.2473C6.67028 17.6284 7.08038 16.9718 7.43348 16.2843C7.43838 16.2749 7.44121 16.2646 7.44176 16.254C7.44232 16.2434 7.4406 16.2328 7.43671 16.223C7.43282 16.2131 7.42686 16.2042 7.41923 16.1968C7.4116 16.1895 7.40248 16.1838 7.39248 16.1803C6.74649 15.937 6.12057 15.6435 5.52048 15.3023C5.5097 15.2962 5.50061 15.2874 5.49404 15.2769C5.48746 15.2664 5.48361 15.2544 5.48281 15.242C5.48202 15.2296 5.48432 15.2172 5.48949 15.2059C5.49467 15.1946 5.50257 15.1848 5.51248 15.1773C5.63848 15.0843 5.76448 14.9873 5.88448 14.8903C5.89528 14.8816 5.90829 14.876 5.92206 14.8743C5.93584 14.8725 5.94983 14.8746 5.96248 14.8803C9.88948 16.6443 14.1425 16.6443 18.0235 14.8803C18.0362 14.8743 18.0503 14.8719 18.0643 14.8735C18.0782 14.8751 18.0915 14.8806 18.1025 14.8893C18.2225 14.9873 18.3475 15.0843 18.4745 15.1773C18.4845 15.1846 18.4925 15.1943 18.4979 15.2055C18.5032 15.2167 18.5057 15.229 18.5051 15.2414C18.5045 15.2538 18.5008 15.2659 18.4945 15.2765C18.4881 15.2871 18.4791 15.296 18.4685 15.3023C17.8705 15.6463 17.2485 15.9373 16.5955 16.1793C16.5855 16.183 16.5763 16.1887 16.5687 16.1961C16.561 16.2036 16.5551 16.2126 16.5512 16.2225C16.5473 16.2325 16.5456 16.2431 16.5462 16.2538C16.5467 16.2644 16.5496 16.2748 16.5545 16.2843C16.9145 16.9713 17.3265 17.6253 17.7795 18.2463C17.7889 18.2591 17.802 18.2686 17.8171 18.2736C17.8321 18.2786 17.8483 18.2789 17.8635 18.2743C20.0178 17.626 22.0471 16.6181 23.8655 15.2933C23.8744 15.2871 23.8818 15.2791 23.8873 15.2698C23.8928 15.2605 23.8963 15.2501 23.8975 15.2393C24.3975 10.1453 23.0595 5.71932 20.3485 1.79732C20.3418 1.78457 20.3308 1.77464 20.3175 1.76932ZM8.02048 12.5553C6.83848 12.5553 5.86348 11.4863 5.86348 10.1753C5.86348 8.86332 6.81948 7.79532 8.02048 7.79532C9.23048 7.79532 10.1965 8.87232 10.1775 10.1753C10.1775 11.4873 9.22148 12.5553 8.02048 12.5553ZM15.9955 12.5553C14.8125 12.5553 13.8385 11.4863 13.8385 10.1753C13.8385 8.86332 14.7935 7.79532 15.9955 7.79532C17.2055 7.79532 18.1715 8.87232 18.1525 10.1753C18.1525 11.4873 17.2065 12.5553 15.9955 12.5553Z" fill="black"/>
</svg>
