<svg viewBox="0 0 22 23" fill="none" xmlns="http://www.w3.org/2000/svg">
<path fill-rule="evenodd" clip-rule="evenodd" d="M6.465 0.34432C7.638 0.29032 8.012 0.27832 11 0.27832C13.988 0.27832 14.362 0.29132 15.534 0.34432C16.706 0.39732 17.506 0.58432 18.206 0.85532C18.939 1.13232 19.604 1.56532 20.154 2.12532C20.714 2.67432 21.146 3.33832 21.422 4.07232C21.694 4.77232 21.88 5.57232 21.934 6.74232C21.988 7.91732 22 8.29132 22 11.2783C22 14.2663 21.987 14.6403 21.934 15.8133C21.881 16.9833 21.694 17.7833 21.422 18.4833C21.146 19.2174 20.7133 19.8825 20.154 20.4323C19.604 20.9923 18.939 21.4243 18.206 21.7003C17.506 21.9723 16.706 22.1583 15.536 22.2123C14.362 22.2663 13.988 22.2783 11 22.2783C8.012 22.2783 7.638 22.2653 6.465 22.2123C5.295 22.1593 4.495 21.9723 3.795 21.7003C3.06092 21.4243 2.39582 20.9916 1.846 20.4323C1.28638 19.883 0.853315 19.2182 0.577 18.4843C0.306 17.7843 0.12 16.9843 0.066 15.8143C0.012 14.6393 0 14.2653 0 11.2783C0 8.29032 0.013 7.91632 0.066 6.74432C0.119 5.57232 0.306 4.77232 0.577 4.07232C0.853723 3.3384 1.28712 2.67363 1.847 2.12432C2.39604 1.56482 3.06047 1.13176 3.794 0.85532C4.494 0.58432 5.294 0.39832 6.464 0.34432H6.465ZM15.445 2.32432C14.285 2.27132 13.937 2.26032 11 2.26032C8.063 2.26032 7.715 2.27132 6.555 2.32432C5.482 2.37332 4.9 2.55232 4.512 2.70332C3.999 2.90332 3.632 3.14032 3.247 3.52532C2.88205 3.88037 2.60118 4.3126 2.425 4.79032C2.274 5.17832 2.095 5.76032 2.046 6.83332C1.993 7.99332 1.982 8.34132 1.982 11.2783C1.982 14.2153 1.993 14.5633 2.046 15.7233C2.095 16.7963 2.274 17.3783 2.425 17.7663C2.601 18.2433 2.882 18.6763 3.247 19.0313C3.602 19.3963 4.035 19.6773 4.512 19.8533C4.9 20.0043 5.482 20.1833 6.555 20.2323C7.715 20.2853 8.062 20.2963 11 20.2963C13.938 20.2963 14.285 20.2853 15.445 20.2323C16.518 20.1833 17.1 20.0043 17.488 19.8533C18.001 19.6533 18.368 19.4163 18.753 19.0313C19.118 18.6763 19.399 18.2433 19.575 17.7663C19.726 17.3783 19.905 16.7963 19.954 15.7233C20.007 14.5633 20.018 14.2153 20.018 11.2783C20.018 8.34132 20.007 7.99332 19.954 6.83332C19.905 5.76032 19.726 5.17832 19.575 4.79032C19.375 4.27732 19.138 3.91032 18.753 3.52532C18.3979 3.16039 17.9657 2.87953 17.488 2.70332C17.1 2.55232 16.518 2.37332 15.445 2.32432ZM9.595 14.6693C10.3797 14.996 11.2534 15.04 12.0669 14.794C12.8805 14.548 13.5834 14.0272 14.0556 13.3206C14.5278 12.6139 14.7401 11.7652 14.656 10.9194C14.572 10.0737 14.197 9.28329 13.595 8.68332C13.2112 8.2998 12.7472 8.00613 12.2363 7.82347C11.7255 7.6408 11.1804 7.57368 10.6405 7.62694C10.1006 7.68019 9.57915 7.8525 9.1138 8.13145C8.64845 8.4104 8.25074 8.78906 7.9493 9.24017C7.64786 9.69128 7.45019 10.2036 7.37052 10.7403C7.29084 11.277 7.33115 11.8246 7.48854 12.3438C7.64593 12.8631 7.91648 13.3409 8.28072 13.743C8.64496 14.1452 9.09382 14.4615 9.595 14.6693ZM7.002 7.28032C7.52702 6.7553 8.15032 6.33882 8.8363 6.05468C9.52228 5.77054 10.2575 5.62429 11 5.62429C11.7425 5.62429 12.4777 5.77054 13.1637 6.05468C13.8497 6.33882 14.473 6.7553 14.998 7.28032C15.523 7.80535 15.9395 8.42864 16.2236 9.11462C16.5078 9.8006 16.654 10.5358 16.654 11.2783C16.654 12.0208 16.5078 12.756 16.2236 13.442C15.9395 14.128 15.523 14.7513 14.998 15.2763C13.9377 16.3367 12.4995 16.9323 11 16.9323C9.50046 16.9323 8.06234 16.3367 7.002 15.2763C5.94166 14.216 5.34597 12.7779 5.34597 11.2783C5.34597 9.77878 5.94166 8.34066 7.002 7.28032ZM17.908 6.46632C18.0381 6.34359 18.1423 6.196 18.2143 6.03229C18.2863 5.86859 18.3248 5.69209 18.3274 5.51325C18.33 5.33441 18.2967 5.15687 18.2295 4.99113C18.1622 4.82539 18.0624 4.67483 17.936 4.54836C17.8095 4.42189 17.6589 4.32208 17.4932 4.25484C17.3275 4.1876 17.1499 4.1543 16.9711 4.1569C16.7922 4.15951 16.6157 4.19797 16.452 4.27002C16.2883 4.34206 16.1407 4.44622 16.018 4.57632C15.7793 4.82935 15.6486 5.16544 15.6537 5.51325C15.6588 5.86106 15.7992 6.1932 16.0452 6.43916C16.2911 6.68513 16.6233 6.82555 16.9711 6.83062C17.3189 6.83569 17.655 6.70501 17.908 6.46632Z" fill="black"/>
</svg>
