<svg width="24" height="19" viewBox="0 0 24 19" fill="none" xmlns="http://www.w3.org/2000/svg">
<path d="M23.6435 2.2154C22.8085 2.5854 21.9115 2.8354 20.9685 2.9484C21.9415 2.36619 22.6694 1.44986 23.0165 0.370397C22.1023 0.913387 21.1018 1.29559 20.0585 1.5004C19.3569 0.751262 18.4276 0.254723 17.4148 0.0878713C16.4021 -0.0789809 15.3626 0.0931888 14.4577 0.57765C13.5529 1.06211 12.8333 1.83176 12.4107 2.7671C11.988 3.70244 11.886 4.75115 12.1205 5.7504C10.2682 5.65739 8.45613 5.17595 6.80192 4.3373C5.14772 3.49866 3.68834 2.32156 2.5185 0.882397C2.1185 1.5724 1.8885 2.3724 1.8885 3.2244C1.88805 3.99139 2.07693 4.74664 2.43838 5.42313C2.79982 6.09962 3.32266 6.67644 3.9605 7.1024C3.22078 7.07886 2.49737 6.87898 1.8505 6.5194V6.5794C1.85043 7.65514 2.22253 8.69777 2.90368 9.53039C3.58483 10.363 4.53307 10.9343 5.5875 11.1474C4.90128 11.3331 4.18184 11.3605 3.4835 11.2274C3.781 12.153 4.3605 12.9624 5.14087 13.5423C5.92124 14.1222 6.86342 14.4436 7.8355 14.4614C6.18533 15.7568 4.14739 16.4595 2.0495 16.4564C1.67788 16.4565 1.30658 16.4348 0.9375 16.3914C3.06698 17.7606 5.54584 18.4872 8.0775 18.4844C16.6475 18.4844 21.3325 11.3864 21.3325 5.2304C21.3325 5.0304 21.3275 4.8284 21.3185 4.6284C22.2298 3.96937 23.0164 3.15329 23.6415 2.2184L23.6435 2.2154Z" fill="black"/>
</svg>
